<?xml version="1.0" encoding="UTF-8" standalone="no"?>
<!-- Generator: Adobe Illustrator 16.0.3, SVG Export Plug-In . SVG Version: 6.00 Build 0)  -->

<svg
   xmlns:dc="http://purl.org/dc/elements/1.1/"
   xmlns:cc="http://creativecommons.org/ns#"
   xmlns:rdf="http://www.w3.org/1999/02/22-rdf-syntax-ns#"
   xmlns:svg="http://www.w3.org/2000/svg"
   xmlns="http://www.w3.org/2000/svg"
   xmlns:sodipodi="http://sodipodi.sourceforge.net/DTD/sodipodi-0.dtd"
   xmlns:inkscape="http://www.inkscape.org/namespaces/inkscape"
   version="1.1"
   id="Слой_2"
   x="0px"
   y="0px"
   width="54px"
   height="54px"
   viewBox="0 0 54 54"
   enable-background="new 0 0 54 54"
   xml:space="preserve"
   inkscape:version="0.48.4 r9939"
   sodipodi:docname="ico_play_hover.svg"><metadata
   id="metadata17"><rdf:RDF><cc:Work
       rdf:about=""><dc:format>image/svg+xml</dc:format><dc:type
         rdf:resource="http://purl.org/dc/dcmitype/StillImage" /></cc:Work></rdf:RDF></metadata><defs
   id="defs15" /><sodipodi:namedview
   pagecolor="#ffffff"
   bordercolor="#666666"
   borderopacity="1"
   objecttolerance="10"
   gridtolerance="10"
   guidetolerance="10"
   inkscape:pageopacity="0"
   inkscape:pageshadow="2"
   inkscape:window-width="1920"
   inkscape:window-height="1137"
   id="namedview13"
   showgrid="false"
   inkscape:zoom="3.7148438"
   inkscape:cx="27"
   inkscape:cy="27"
   inkscape:window-x="-9"
   inkscape:window-y="-9"
   inkscape:window-maximized="1"
   inkscape:current-layer="Слой_2" />
<g
   id="g2987"
   transform="translate(0,-0.035435)"><path
     id="path2989"
     d="m 0,0.03543307 54.000002,0 0,54.00000193 -54.000002,0 z"
     style="fill:#e6e6e6;fill-opacity:1;fill-rule:nonzero;stroke:none"
     inkscape:connector-curvature="0" /></g><path
   d="M27,0C12.112,0,0,12.112,0,27c0,14.889,12.112,27.001,27,27.001S54,41.889,54,27C54,12.112,41.888,0,27,0z M27,51.001  C13.766,51.001,3,40.233,3,27C3,13.766,13.766,3,27,3c13.233,0,24,10.766,24,24C51,40.233,40.233,51.001,27,51.001z"
   id="path3" />




<path
   style="fill:#000000;fill-opacity:1;stroke:none"
   d="M 19.973,12.123065 19.98817,41.876 c 0,0 22.122321,-14.919936 22.038463,-14.876528 z"
   id="path2994"
   inkscape:connector-curvature="0"
   sodipodi:nodetypes="cccc" /></svg>