<?xml version="1.0" encoding="UTF-8" standalone="no"?>
<!-- Generator: Adobe Illustrator 16.0.3, SVG Export Plug-In . SVG Version: 6.00 Build 0)  -->

<svg
   xmlns:dc="http://purl.org/dc/elements/1.1/"
   xmlns:cc="http://creativecommons.org/ns#"
   xmlns:rdf="http://www.w3.org/1999/02/22-rdf-syntax-ns#"
   xmlns:svg="http://www.w3.org/2000/svg"
   xmlns="http://www.w3.org/2000/svg"
   xmlns:sodipodi="http://sodipodi.sourceforge.net/DTD/sodipodi-0.dtd"
   xmlns:inkscape="http://www.inkscape.org/namespaces/inkscape"
   version="1.1"
   id="Слой_2"
   x="0px"
   y="0px"
   width="54px"
   height="54px"
   viewBox="0 0 54 54"
   enable-background="new 0 0 54 54"
   xml:space="preserve"
   inkscape:version="0.48.4 r9939"
   sodipodi:docname="ico_play_inactive.svg"><metadata
   id="metadata17"><rdf:RDF><cc:Work
       rdf:about=""><dc:format>image/svg+xml</dc:format><dc:type
         rdf:resource="http://purl.org/dc/dcmitype/StillImage" /></cc:Work></rdf:RDF></metadata><defs
   id="defs15" /><sodipodi:namedview
   pagecolor="#ffffff"
   bordercolor="#666666"
   borderopacity="1"
   objecttolerance="10"
   gridtolerance="10"
   guidetolerance="10"
   inkscape:pageopacity="0"
   inkscape:pageshadow="2"
   inkscape:window-width="1920"
   inkscape:window-height="1137"
   id="namedview13"
   showgrid="false"
   inkscape:zoom="1"
   inkscape:cx="14.588729"
   inkscape:cy="27"
   inkscape:window-x="-9"
   inkscape:window-y="-9"
   inkscape:window-maximized="1"
   inkscape:current-layer="Слой_2" />
<rect
   style="fill:#e6e6e6"
   y="0"
   x="0"
   width="54"
   height="54"
   id="rect3" /><path
   d="m 27,-5e-4 c -14.888,0 -27,12.112 -27,27 0,14.889 12.112,27.001 27,27.001 14.888,0 27,-12.112 27,-27.001 0,-14.888 -12.112,-27 -27,-27 z m 0,51.001 c -13.234,0 -24,-10.768 -24,-24.001 0,-13.234 10.766,-24 24,-24 13.233,0 24,10.766 24,24 0,13.233 -10.767,24.001 -24,24.001 z"
   id="path3"
   inkscape:connector-curvature="0"
   style="fill:#c5c5c5" />




<path
   style="fill:#c5c5c5;fill-opacity:1;stroke:none"
   d="m 19.973065,12.123533 0.01517,29.752935 c 0,0 22.122321,-14.919936 22.038463,-14.876528 z"
   id="path2994"
   inkscape:connector-curvature="0"
   sodipodi:nodetypes="cccc" /></svg>